<svg preserveAspectRatio="none" width="100%" height="100%" overflow="visible" style="display: block;" viewBox="0 0 31.3433 28.2388" fill="none" xmlns="http://www.w3.org/2000/svg">
<g id="Group 3">
<path id="Vector 20" d="M15.2985 0.5V3.85821M15.2985 27.7388V3.85821M4.10448 6.84328L15.2985 3.85821M15.2985 3.85821L26.8657 3.11194" stroke="var(--stroke-0, #FFC800)" stroke-linecap="round"/>
<path id="Vector 21" d="M9.70149 27.7388H22.0149" stroke="var(--stroke-0, #FFC800)" stroke-linecap="round"/>
<path id="Vector 22" d="M11.9403 26.9925L19.403 26.9925" stroke="var(--stroke-0, #FFC800)" stroke-linecap="round"/>
<path id="Ellipse 51" d="M9.70149 15.7985C9.70149 17.184 9.19043 18.5127 8.28074 19.4923C7.37105 20.472 6.13724 21.0224 4.85075 21.0224C3.56425 21.0224 2.33044 20.472 1.42075 19.4923C0.51106 18.5127 1.94256e-07 17.184 0 15.7985L4.85075 15.7985H9.70149Z" fill="var(--fill-0, #FFC800)"/>
<path id="Ellipse 52" d="M31.3433 12.0672C31.3433 13.4526 30.8322 14.7813 29.9225 15.761C29.0128 16.7407 27.779 17.291 26.4925 17.291C25.206 17.291 23.9722 16.7407 23.0625 15.761C22.1529 14.7813 21.6418 13.4526 21.6418 12.0672L26.4925 12.0672H31.3433Z" fill="var(--fill-0, #FFC800)"/>
<path id="Vector 23" d="M0.746269 15.7985L4.85075 7.58955L8.95522 15.7985" stroke="var(--stroke-0, #FFC800)" stroke-linecap="round"/>
<path id="Vector 24" d="M22.3881 12.0672L26.4925 3.85821L30.597 12.0672" stroke="var(--stroke-0, #FFC800)" stroke-linecap="round"/>
</g>
</svg>
