<svg preserveAspectRatio="none" width="100%" height="100%" overflow="visible" style="display: block;" viewBox="0 0 50 50" fill="none" xmlns="http://www.w3.org/2000/svg">
<g id="Icon">
<circle id="Ellipse 56" opacity="0.3" cx="25" cy="25" r="25" fill="var(--fill-0, black)" fill-opacity="0.01"/>
<g id="Icon_2">
<path id="Vector 26" d="M21.415 17.8715C21.7882 18.4934 23.0568 19.7372 25.1464 19.7372V16.7521V23.8417C25.022 24.3392 24.2508 25.3342 22.1613 25.3342C19.5493 25.3342 17.6837 26.0805 17.6837 28.6924M17.6837 28.6924C17.6837 31.3044 19.1762 32.7969 22.1613 32.4238C23.2654 32.2858 23.9611 31.9946 24.3995 31.5503M17.6837 28.6924C16.5643 29.0656 13.9523 29.4387 12.4598 27.9462C10.5941 26.0805 9.47472 24.588 10.5941 20.4835C11.7135 16.379 12.4592 20.1104 13.9517 16.7521C15.057 14.2653 16.9808 14.2339 18.0562 14.8396M25.1464 27.9462C25.1464 29.592 25.1464 30.7934 24.3995 31.5503M18.8025 15.6327C18.7057 15.3423 18.433 15.0519 18.0562 14.8396M25.1464 14.5133C25.0367 14.2395 24.792 13.845 24.3995 13.4892C23.9007 13.0372 23.1633 12.6477 22.1613 12.6477C20.3707 12.6477 18.6785 14.109 18.0562 14.8396M24.3995 13.4892C25.5189 12.6794 28.1308 11.3028 29.6234 12.2745C31.1159 13.2463 31.7378 14.6692 31.8622 15.2592M31.1159 14.1397C32.8572 13.7666 36.5637 14.2144 37.4592 18.9905C38.0811 19.2393 39.3249 20.0353 39.3249 21.2293C39.3249 22.7218 40.0711 24.5875 40.4443 24.5875C40.8174 24.5875 42.3099 30.1854 37.0861 32.4238M37.0861 32.4238C33.2303 31.6774 25.5935 30.9308 25.892 33.9159M24.3995 31.5503L25.892 33.9159L30.3696 38.3935C30.9915 38.891 32.5338 39.2144 33.7278 36.5278C34.557 34.6621 37.0861 39.1407 37.0861 32.4238M27.3846 27.9462C28.3796 27.5729 30.5189 26.8263 31.1159 26.8263C31.7129 26.8263 31.8622 25.8316 31.8622 25.3342M34.8472 23.095C34.4741 23.4681 33.8025 24.289 34.101 24.5875C34.3995 24.886 35.7179 25.4582 36.3398 25.7069M27.3846 22.195C28.504 22.3709 30.7428 22.2749 30.7428 20.4835M30.7428 20.4835C30.7428 18.2442 29.2502 19.41 29.6234 17.1248M30.7428 20.4835C31.489 20.1102 33.0562 19.7368 33.3547 21.2293M16.9368 19.7372C17.0612 20.5565 17.6084 22.195 18.8025 22.195M14.1998 24.5875C14.4903 24.5875 15.0711 24.289 15.0711 23.095" stroke="var(--stroke-0, #FFC800)" stroke-linecap="round"/>
</g>
</g>
</svg>
