<svg preserveAspectRatio="none" width="100%" height="100%" overflow="visible" style="display: block;" viewBox="0 0 29.6037 26.3731" fill="none" xmlns="http://www.w3.org/2000/svg">
<g id="Group 4">
<circle id="Ellipse 48" cx="11.3209" cy="6.84328" r="6.34328" stroke="var(--stroke-0, #FFC800)" stroke-linecap="round"/>
<path id="Subtract" d="M20.2774 2.23884C23.2324 2.23897 25.6279 4.63444 25.628 7.58942C25.628 10.5445 23.2324 12.9399 20.2774 12.94C19.8524 12.94 19.4393 12.8896 19.0432 12.7953C18.6862 12.7103 18.6142 12.2581 18.869 11.9941C18.9981 11.8604 19.1888 11.8051 19.3706 11.844C19.6631 11.9065 19.9664 11.94 20.2774 11.94C22.6801 11.9399 24.628 9.99218 24.628 7.58942C24.6279 5.18672 22.6801 3.23897 20.2774 3.23884C19.9665 3.23885 19.6632 3.27185 19.3708 3.33404C19.1889 3.37274 18.9981 3.31748 18.8689 3.18374C18.6137 2.91973 18.6856 2.46748 19.0429 2.38276C19.4392 2.28881 19.8524 2.23885 20.2774 2.23884Z" fill="var(--fill-0, #FFC800)"/>
<path id="Rectangle 76" d="M0.5 21.6866C0.5 16.9921 4.30558 13.1866 9 13.1866H12.8955C17.5899 13.1866 21.3955 16.9921 21.3955 21.6866V24.8731C21.3955 25.4254 20.9478 25.8731 20.3955 25.8731H1.5C0.947716 25.8731 0.5 25.4254 0.5 24.8731V21.6866Z" stroke="var(--stroke-0, #FFC800)" stroke-linecap="round"/>
<path id="Subtract_2" d="M22.5142 11.694C26.4296 11.694 29.6037 14.8681 29.6037 18.7836V24.4484C29.6037 24.8231 29.3 25.1269 28.9253 25.1269H22.5142C22.3081 25.1269 22.1411 24.9598 22.1411 24.7537C22.1411 24.5477 22.3081 24.3806 22.5142 24.3806H28.8575V18.7836C28.8575 15.6924 26.3516 12.4403 23.2605 12.4403H21.4922C21.4202 12.4403 21.299 12.3431 21.2704 12.2771C21.1689 12.043 22.1038 11.694 22.359 11.694H22.5142Z" fill="var(--fill-0, #FFC800)"/>
</g>
</svg>
