<svg preserveAspectRatio="none" width="100%" height="100%" overflow="visible" style="display: block;" viewBox="0 0 50 50" fill="none" xmlns="http://www.w3.org/2000/svg">
<g id="Icon">
<circle id="Ellipse 55" opacity="0.3" cx="25" cy="25" r="25" fill="var(--fill-0, black)" fill-opacity="0.01"/>
<g id="Icon_2">
<path id="Vector 25" d="M10.8099 36.2471C10.6331 36.4592 10.6618 36.7745 10.8739 36.9513C11.0861 37.1281 11.4014 37.0994 11.5781 36.8873L11.194 36.5672L10.8099 36.2471ZM20.5224 25.3731L20.8759 25.0196L20.4888 24.6324L20.1383 25.053L20.5224 25.3731ZM26.4925 31.3433L26.139 31.6968L26.5244 32.0823L26.8752 31.6651L26.4925 31.3433ZM40.2985 14.9254L34.8711 16.8943L39.2899 20.6101L40.2985 14.9254ZM11.194 36.5672L11.5781 36.8873L20.9065 25.6932L20.5224 25.3731L20.1383 25.053L10.8099 36.2471L11.194 36.5672ZM20.5224 25.3731L20.1688 25.7267L26.139 31.6968L26.4925 31.3433L26.8461 30.9897L20.8759 25.0196L20.5224 25.3731ZM26.4925 31.3433L26.8752 31.6651L37.785 18.6913L37.4023 18.3695L37.0196 18.0477L26.1099 31.0215L26.4925 31.3433Z" fill="var(--stroke-0, #FFC800)"/>
</g>
</g>
</svg>
