<svg preserveAspectRatio="none" width="100%" height="100%" overflow="visible" style="display: block;" viewBox="0 0 154 14" fill="none" xmlns="http://www.w3.org/2000/svg">
<g id="Frame 2123447095">
<path id="Line 5 (Stroke)" d="M0 6V8H48L68 7L48 6H0Z" fill="url(#paint0_linear_0_11)"/>
<g id="Star 1">
<mask id="path-2-inside-1_0_11" fill="white">
<path d="M77 0L77.3124 0.949873C78.2054 3.66504 80.335 5.79464 83.0501 6.6876L84 7L83.0501 7.3124C80.335 8.20536 78.2054 10.335 77.3124 13.0501L77 14L76.6876 13.0501C75.7946 10.335 73.665 8.20536 70.9499 7.3124L70 7L70.9499 6.6876C73.665 5.79464 75.7946 3.66504 76.6876 0.949873L77 0Z"/>
</mask>
<g clip-path="url(#paint1_diamond_0_11_clip_path)" data-figma-skip-parse="true" mask="url(#path-2-inside-1_0_11)"><g transform="matrix(0 0.007 -0.007 0 77 7)"><rect x="0" y="0" width="1142.86" height="1142.86" fill="url(#paint1_diamond_0_11)" opacity="1" shape-rendering="crispEdges"/><rect x="0" y="0" width="1142.86" height="1142.86" transform="scale(1 -1)" fill="url(#paint1_diamond_0_11)" opacity="1" shape-rendering="crispEdges"/><rect x="0" y="0" width="1142.86" height="1142.86" transform="scale(-1 1)" fill="url(#paint1_diamond_0_11)" opacity="1" shape-rendering="crispEdges"/><rect x="0" y="0" width="1142.86" height="1142.86" transform="scale(-1)" fill="url(#paint1_diamond_0_11)" opacity="1" shape-rendering="crispEdges"/></g></g><path d="M77 0L77.9499 -0.312419L77 -3.20083L76.0501 -0.312419L77 0ZM84 7L84.3124 7.94994L87.2008 7L84.3124 6.05006L84 7ZM77 14L76.0501 14.3124L77 17.2008L77.9499 14.3124L77 14ZM70 7L69.6876 6.05006L66.7992 7L69.6876 7.94994L70 7ZM70.9499 6.6876L70.6375 5.73766L70.9499 6.6876ZM70.9499 7.3124L70.6375 8.26234L70.9499 7.3124ZM83.0501 6.6876L82.7377 7.63755L83.0501 6.6876ZM77 0L76.0501 0.312419L76.3625 1.26229L77.3124 0.949873L78.2623 0.637454L77.9499 -0.312419L77 0ZM83.0501 6.6876L82.7377 7.63755L83.6876 7.94994L84 7L84.3124 6.05006L83.3625 5.73766L83.0501 6.6876ZM84 7L83.6876 6.05006L82.7377 6.36245L83.0501 7.3124L83.3625 8.26234L84.3124 7.94994L84 7ZM77.3124 13.0501L76.3625 12.7377L76.0501 13.6876L77 14L77.9499 14.3124L78.2623 13.3625L77.3124 13.0501ZM77 14L77.9499 13.6876L77.6375 12.7377L76.6876 13.0501L75.7377 13.3625L76.0501 14.3124L77 14ZM70.9499 7.3124L71.2623 6.36245L70.3124 6.05006L70 7L69.6876 7.94994L70.6375 8.26234L70.9499 7.3124ZM70 7L70.3124 7.94994L71.2623 7.63755L70.9499 6.6876L70.6375 5.73766L69.6876 6.05006L70 7ZM76.6876 0.949873L77.6375 1.26229L77.9499 0.312419L77 0L76.0501 -0.312419L75.7377 0.637454L76.6876 0.949873ZM70.9499 6.6876L71.2623 7.63755C74.2791 6.64536 76.6454 4.27915 77.6375 1.26229L76.6876 0.949873L75.7377 0.637454C74.9439 3.05094 73.0509 4.94391 70.6375 5.73766L70.9499 6.6876ZM76.6876 13.0501L77.6375 12.7377C76.6454 9.72085 74.2791 7.35464 71.2623 6.36245L70.9499 7.3124L70.6375 8.26234C73.0509 9.05609 74.9439 10.9491 75.7377 13.3625L76.6876 13.0501ZM83.0501 7.3124L82.7377 6.36245C79.7209 7.35464 77.3546 9.72085 76.3625 12.7377L77.3124 13.0501L78.2623 13.3625C79.0561 10.9491 80.9491 9.05609 83.3625 8.26234L83.0501 7.3124ZM77.3124 0.949873L76.3625 1.26229C77.3546 4.27915 79.7208 6.64536 82.7377 7.63755L83.0501 6.6876L83.3625 5.73766C80.9491 4.94391 79.0561 3.05094 78.2623 0.637454L77.3124 0.949873Z" data-figma-gradient-fill="{&#34;type&#34;:&#34;GRADIENT_DIAMOND&#34;,&#34;stops&#34;:[{&#34;color&#34;:{&#34;r&#34;:1.0,&#34;g&#34;:1.0,&#34;b&#34;:1.0,&#34;a&#34;:1.0},&#34;position&#34;:0.0},{&#34;color&#34;:{&#34;r&#34;:0.87032377719879150,&#34;g&#34;:0.54475146532058716,&#34;b&#34;:0.13778600096702576,&#34;a&#34;:1.0},&#34;position&#34;:0.87163305282592773}],&#34;stopsVar&#34;:[{&#34;color&#34;:{&#34;r&#34;:1.0,&#34;g&#34;:1.0,&#34;b&#34;:1.0,&#34;a&#34;:1.0},&#34;position&#34;:0.0},{&#34;color&#34;:{&#34;r&#34;:0.87032377719879150,&#34;g&#34;:0.54475146532058716,&#34;b&#34;:0.13778600096702576,&#34;a&#34;:1.0},&#34;position&#34;:0.87163305282592773}],&#34;transform&#34;:{&#34;m00&#34;:8.5725282327939710e-16,&#34;m01&#34;:-14.0,&#34;m02&#34;:84.0,&#34;m10&#34;:14.0,&#34;m11&#34;:-3.5602714353044629e-12,&#34;m12&#34;:1.7785994031738195e-12},&#34;opacity&#34;:1.0,&#34;blendMode&#34;:&#34;NORMAL&#34;,&#34;visible&#34;:true}" mask="url(#path-2-inside-1_0_11)"/>
</g>
<path id="Line 4 (Stroke)" d="M154 6V8H106L86 7L106 6H154Z" fill="url(#paint2_linear_0_11)"/>
</g>
<defs>
<clipPath id="paint1_diamond_0_11_clip_path"><path d="M77 0L77.9499 -0.312419L77 -3.20083L76.0501 -0.312419L77 0ZM84 7L84.3124 7.94994L87.2008 7L84.3124 6.05006L84 7ZM77 14L76.0501 14.3124L77 17.2008L77.9499 14.3124L77 14ZM70 7L69.6876 6.05006L66.7992 7L69.6876 7.94994L70 7ZM70.9499 6.6876L70.6375 5.73766L70.9499 6.6876ZM70.9499 7.3124L70.6375 8.26234L70.9499 7.3124ZM83.0501 6.6876L82.7377 7.63755L83.0501 6.6876ZM77 0L76.0501 0.312419L76.3625 1.26229L77.3124 0.949873L78.2623 0.637454L77.9499 -0.312419L77 0ZM83.0501 6.6876L82.7377 7.63755L83.6876 7.94994L84 7L84.3124 6.05006L83.3625 5.73766L83.0501 6.6876ZM84 7L83.6876 6.05006L82.7377 6.36245L83.0501 7.3124L83.3625 8.26234L84.3124 7.94994L84 7ZM77.3124 13.0501L76.3625 12.7377L76.0501 13.6876L77 14L77.9499 14.3124L78.2623 13.3625L77.3124 13.0501ZM77 14L77.9499 13.6876L77.6375 12.7377L76.6876 13.0501L75.7377 13.3625L76.0501 14.3124L77 14ZM70.9499 7.3124L71.2623 6.36245L70.3124 6.05006L70 7L69.6876 7.94994L70.6375 8.26234L70.9499 7.3124ZM70 7L70.3124 7.94994L71.2623 7.63755L70.9499 6.6876L70.6375 5.73766L69.6876 6.05006L70 7ZM76.6876 0.949873L77.6375 1.26229L77.9499 0.312419L77 0L76.0501 -0.312419L75.7377 0.637454L76.6876 0.949873ZM70.9499 6.6876L71.2623 7.63755C74.2791 6.64536 76.6454 4.27915 77.6375 1.26229L76.6876 0.949873L75.7377 0.637454C74.9439 3.05094 73.0509 4.94391 70.6375 5.73766L70.9499 6.6876ZM76.6876 13.0501L77.6375 12.7377C76.6454 9.72085 74.2791 7.35464 71.2623 6.36245L70.9499 7.3124L70.6375 8.26234C73.0509 9.05609 74.9439 10.9491 75.7377 13.3625L76.6876 13.0501ZM83.0501 7.3124L82.7377 6.36245C79.7209 7.35464 77.3546 9.72085 76.3625 12.7377L77.3124 13.0501L78.2623 13.3625C79.0561 10.9491 80.9491 9.05609 83.3625 8.26234L83.0501 7.3124ZM77.3124 0.949873L76.3625 1.26229C77.3546 4.27915 79.7208 6.64536 82.7377 7.63755L83.0501 6.6876L83.3625 5.73766C80.9491 4.94391 79.0561 3.05094 78.2623 0.637454L77.3124 0.949873Z"/></clipPath><linearGradient id="paint0_linear_0_11" x1="68" y1="8.5" x2="0" y2="8.5" gradientUnits="userSpaceOnUse">
<stop stop-color="#DE8B23"/>
<stop offset="0.489758" stop-color="#FFF5EF"/>
<stop offset="1" stop-color="#CFC1B6" stop-opacity="0"/>
</linearGradient>
<linearGradient id="paint1_diamond_0_11" x1="0" y1="0" x2="500" y2="500" gradientUnits="userSpaceOnUse">
<stop stop-color="white"/>
<stop offset="0.871633" stop-color="#DE8B23"/>
</linearGradient>
<linearGradient id="paint2_linear_0_11" x1="86" y1="8.5" x2="154" y2="8.5" gradientUnits="userSpaceOnUse">
<stop stop-color="#DE8B23"/>
<stop offset="0.489758" stop-color="#FFF5EF"/>
<stop offset="1" stop-color="#CFC1B6" stop-opacity="0"/>
</linearGradient>
</defs>
</svg>
