<svg preserveAspectRatio="xMidYMid meet" width="100%" height="100%" overflow="visible" style="display: block;" viewBox="0 0 50.3785 51.1604" fill="none" xmlns="http://www.w3.org/2000/svg">
<g id="Icon">
<path id="Ellipse 76" d="M34.6892 14.3747C34.6892 21.4755 30.4359 24.6604 25.1892 24.6604C19.9425 24.6604 15.6892 21.4755 15.6892 14.3747C15.6892 8.00035 19.1168 2.70945 23.6136 1.69358C24.1261 1.57781 25.1892 0.660418 25.1892 0.660418C25.1892 0.660418 26.2524 1.57781 26.7649 1.69358C31.2617 2.70945 34.6892 8.00035 34.6892 14.3747Z" stroke="var(--stroke-0, #FFC800)" stroke-linecap="round"/>
<path id="Ellipse 77" d="M15.6892 35.3747C15.6892 27.978 19.9425 24.6604 25.1892 24.6604C30.4359 24.6604 34.6892 27.978 34.6892 35.3747C34.6892 42.0147 31.2617 47.526 26.7649 48.5842C26.2524 48.7048 25.1892 49.6604 25.1892 49.6604C25.1892 49.6604 24.1261 48.7048 23.6136 48.5842C19.1168 47.526 15.6892 42.0147 15.6892 35.3747Z" stroke="var(--stroke-0, #FFC800)" stroke-linecap="round"/>
<path id="Ellipse 78" d="M35.4035 33.6604C28.0069 33.6604 24.6892 29.631 24.6892 24.6604C24.6892 19.6899 28.0069 15.6604 35.4035 15.6604C42.0435 15.6604 47.5548 18.9076 48.613 23.1677C48.7336 23.6532 49.6892 24.6604 49.6892 24.6604C49.6892 24.6604 48.7336 25.6676 48.613 26.1531C47.5548 30.4133 42.0435 33.6604 35.4035 33.6604Z" stroke="var(--stroke-0, #FFC800)" stroke-linecap="round"/>
<path id="Ellipse 79" d="M14.975 15.6604C22.3716 15.6604 25.6892 19.6899 25.6892 24.6604C25.6892 29.631 22.3716 33.6604 14.975 33.6604C8.33501 33.6604 2.82365 30.4133 1.76546 26.1531C1.64486 25.6676 0.689242 24.6604 0.689242 24.6604C0.689242 24.6604 1.64486 23.6532 1.76546 23.1677C2.82365 18.9076 8.33501 15.6604 14.975 15.6604Z" stroke="var(--stroke-0, #FFC800)" stroke-linecap="round"/>
<path id="Ellipse 80" d="M24.2615 10.7387C29.3871 15.8643 28.7775 21.0719 25.1896 24.6599C21.6016 28.2478 16.3941 28.8574 11.2684 23.7318C6.66718 19.1305 5.19191 12.9675 7.53376 9.15901C7.80066 8.72498 7.86547 7.33575 7.86547 7.33575C7.86547 7.33575 9.25471 7.27093 9.68874 7.00404C13.4972 4.66218 19.6603 6.13745 24.2615 10.7387Z" stroke="var(--stroke-0, #FFC800)" stroke-linecap="round"/>
<path id="Ellipse 81" d="M26.117 38.5821C20.9913 33.4565 21.601 28.2489 25.1889 24.661C28.7768 21.073 33.9844 20.4634 39.1101 25.589C43.7113 30.1903 45.1866 36.3534 42.8447 40.1618C42.5778 40.5959 42.513 41.9851 42.513 41.9851C42.513 41.9851 41.1238 42.0499 40.6897 42.3168C36.8813 44.6587 30.7182 43.1834 26.117 38.5821Z" stroke="var(--stroke-0, #FFC800)" stroke-linecap="round"/>
<path id="Ellipse 82" d="M39.111 23.7327C33.9853 28.8583 28.7777 28.2487 25.1898 24.6608C21.6019 21.0728 20.9922 15.8652 26.1179 10.7396C30.7191 6.13835 36.8822 4.66308 40.6906 7.00494C41.1247 7.27183 42.5139 7.33665 42.5139 7.33665C42.5139 7.33665 42.5787 8.72588 42.8456 9.15991C45.1875 12.9684 43.7122 19.1314 39.111 23.7327Z" stroke="var(--stroke-0, #FFC800)" stroke-linecap="round"/>
<path id="Ellipse 83" d="M11.2675 25.5881C16.3932 20.4625 21.6007 21.0721 25.1887 24.6601C28.7766 28.248 29.3862 33.4556 24.2606 38.5812C19.6594 43.1825 13.4963 44.6578 9.68784 42.3159C9.25381 42.049 7.86457 41.9842 7.86457 41.9842C7.86457 41.9842 7.79976 40.595 7.53287 40.1609C5.19101 36.3525 6.66628 30.1894 11.2675 25.5881Z" stroke="var(--stroke-0, #FFC800)" stroke-linecap="round"/>
</g>
</svg>
