<svg preserveAspectRatio="none" width="100%" height="100%" overflow="visible" style="display: block;" viewBox="0 0 51 51" fill="none" xmlns="http://www.w3.org/2000/svg">
<g id="Group">
<path id="Vector" d="M0.5 25.5C0.5 28.783 1.14664 32.0339 2.40301 35.0671C3.65938 38.1002 5.50087 40.8562 7.82233 43.1777C10.1438 45.4991 12.8998 47.3406 15.9329 48.597C18.9661 49.8534 22.217 50.5 25.5 50.5C28.783 50.5 32.0339 49.8534 35.0671 48.597C38.1002 47.3406 40.8562 45.4991 43.1777 43.1777C45.4991 40.8562 47.3406 38.1002 48.597 35.0671C49.8534 32.0339 50.5 28.783 50.5 25.5C50.5 18.8696 47.8661 12.5107 43.1777 7.82233C38.4893 3.13392 32.1304 0.5 25.5 0.5C18.8696 0.5 12.5107 3.13392 7.82233 7.82233C3.13392 12.5107 0.5 18.8696 0.5 25.5Z" stroke="var(--stroke-0, #FFC800)" stroke-linecap="round"/>
<path id="Vector_2" d="M25.5 11.6111V25.5L33.8333 33.8333" stroke="var(--stroke-0, #FFC800)" stroke-linecap="round"/>
</g>
</svg>
