<svg preserveAspectRatio="none" width="100%" height="100%" overflow="visible" style="display: block;" viewBox="0 0 45.1372 45.7217" fill="none" xmlns="http://www.w3.org/2000/svg">
<g id="Frame 2123447079">
<path id="Ellipse 59" d="M41.4722 29.1644C41.563 28.9036 41.4252 28.6186 41.1644 28.5278C40.9036 28.437 40.6186 28.5748 40.5278 28.8356L41 29L41.4722 29.1644ZM16.7459 40.9152C16.5081 41.0555 16.429 41.362 16.5694 41.5999L18.8559 45.4756C18.9962 45.7135 19.3028 45.7925 19.5406 45.6522C19.7785 45.5119 19.8575 45.2054 19.7172 44.9675L17.6847 41.5224L21.1298 39.4899C21.3677 39.3496 21.4467 39.043 21.3064 38.8052C21.1661 38.5673 20.8595 38.4883 20.6217 38.6286L16.7459 40.9152ZM41 29L40.5278 28.8356C38.9697 33.311 35.6823 37.0533 31.3313 39.2915L31.56 39.7361L31.7887 40.1808C36.3604 37.829 39.827 33.8901 41.4722 29.1644L41 29ZM31.56 39.7361L31.3313 39.2915C26.9798 41.53 21.8971 42.0924 17.1249 40.8617L17 41.3458L16.8751 41.83C21.8831 43.1215 27.2176 42.5322 31.7887 40.1808L31.56 39.7361Z" fill="var(--stroke-0, #FFC800)"/>
<path id="Ellipse 60" d="M7.12602 36.3131L7.43907 36.7029L8.2188 36.0768L7.90575 35.6869L7.51588 36L7.12602 36.3131ZM8.49881 8.96554C8.47978 8.69005 8.24103 8.48216 7.96554 8.50119L3.47624 8.81133C3.20075 8.83036 2.99286 9.06911 3.01189 9.3446C3.03092 9.62009 3.26967 9.82798 3.54516 9.80895L7.53565 9.53327L7.81133 13.5238C7.83036 13.7992 8.06911 14.0071 8.3446 13.9881C8.62009 13.9691 8.82798 13.7303 8.80895 13.4548L8.49881 8.96554ZM7.51588 36L7.90575 35.6869C4.99484 32.0619 3.41548 27.3093 3.50349 22.4006L3.00357 22.3916L2.50365 22.3826C2.41168 27.512 4.06068 32.4957 7.12602 36.3131L7.51588 36ZM3.00357 22.3916L3.50349 22.4006C3.5915 17.4919 5.33987 12.8163 8.37708 9.32835L8 9L7.62292 8.67165C4.42199 12.3477 2.59562 17.2533 2.50365 22.3826L3.00357 22.3916Z" fill="var(--stroke-0, #FFC800)"/>
<path id="Ellipse 61" d="M19.96 2.57317C19.6847 2.59528 19.4795 2.83634 19.5016 3.1116C19.5237 3.38686 19.7648 3.59207 20.04 3.56996L20 3.07156L19.96 2.57317ZM41.707 19.4051C41.9307 19.567 42.2433 19.5168 42.4051 19.293L45.0423 15.6467C45.2041 15.423 45.1539 15.1104 44.9302 14.9486C44.7064 14.7867 44.3939 14.8369 44.232 15.0607L41.8879 18.3018L38.6467 15.9577C38.423 15.7959 38.1104 15.8461 37.9486 16.0698C37.7867 16.2936 37.8369 16.6061 38.0607 16.768L41.707 19.4051ZM20 3.07156L20.04 3.56996C25.1174 3.16211 30.1679 4.54857 34.1578 7.43732L34.451 7.03233L34.7442 6.62733C30.5549 3.59421 25.2664 2.14691 19.96 2.57317L20 3.07156ZM34.451 7.03233L34.1578 7.43732C38.1466 10.3253 40.7697 14.4923 41.5063 19.0793L42 19L42.4937 18.9207C41.7125 14.0565 38.9346 9.66124 34.7442 6.62733L34.451 7.03233Z" fill="var(--stroke-0, #FFC800)"/>
</g>
</svg>
